<?xml version="1.0" encoding="UTF-8"?>
<svg xmlns="http://www.w3.org/2000/svg" viewBox="0 0 64 64">
    <path d="M 7 8 C 5.346 8 4 9.346 4 11 L 4 53 C 4 54.654 5.346 56 7 56 L 57 56 C 58.654 56 60 54.654 60 53 L 60 11 C 60 9.346 58.654 8 57 8 L 7 8 z M 7 10 L 57 10 C 57.552 10 58 10.448 58 11 L 58 53 C 58 53.552 57.552 54 57 54 L 7 54 C 6.448 54 6 53.552 6 53 L 6 20 L 47 20 C 47.553 20 48 19.553 48 19 C 48 18.447 47.553 18 47 18 L 6 18 L 6 11 C 6 10.448 6.448 10 7 10 z M 10 12 C 9.447 12 9 12.447 9 13 L 9 15 C 9 15.553 9.447 16 10 16 C 10.553 16 11 15.553 11 15 L 11 13 C 11 12.447 10.553 12 10 12 z M 15 12 C 14.447 12 14 12.447 14 13 L 14 15 C 14 15.553 14.447 16 15 16 C 15.553 16 16 15.553 16 15 L 16 13 C 16 12.447 15.553 12 15 12 z M 20 12 C 19.447 12 19 12.447 19 13 L 19 15 C 19 15.553 19.447 16 20 16 C 20.553 16 21 15.553 21 15 L 21 13 C 21 12.447 20.553 12 20 12 z M 25 12 C 24.447 12 24 12.447 24 13 L 24 15 C 24 15.553 24.447 16 25 16 C 25.553 16 26 15.553 26 15 L 26 13 C 26 12.447 25.553 12 25 12 z M 30 12 C 29.447 12 29 12.447 29 13 L 29 15 C 29 15.553 29.447 16 30 16 C 30.553 16 31 15.553 31 15 L 31 13 C 31 12.447 30.553 12 30 12 z M 35 12 C 34.447 12 34 12.447 34 13 L 34 15 C 34 15.553 34.447 16 35 16 C 35.553 16 36 15.553 36 15 L 36 13 C 36 12.447 35.553 12 35 12 z M 40 12 C 39.447 12 39 12.447 39 13 L 39 15 C 39 15.553 39.447 16 40 16 C 40.553 16 41 15.553 41 15 L 41 13 C 41 12.447 40.553 12 40 12 z M 45 12 C 44.447 12 44 12.447 44 13 L 44 15 C 44 15.553 44.447 16 45 16 C 45.553 16 46 15.553 46 15 L 46 13 C 46 12.447 45.553 12 45 12 z M 50 12 C 49.447 12 49 12.447 49 13 L 49 15 C 49 15.553 49.447 16 50 16 C 50.553 16 51 15.553 51 15 L 51 13 C 51 12.447 50.553 12 50 12 z M 55 12 C 54.447 12 54 12.447 54 13 L 54 15 C 54 15.553 54.447 16 55 16 C 55.553 16 56 15.553 56 15 L 56 13 C 56 12.447 55.553 12 55 12 z M 51 18 C 50.447 18 50 18.447 50 19 C 50 19.553 50.447 20 51 20 L 55 20 C 55.553 20 56 19.553 56 19 C 56 18.447 55.553 18 55 18 L 51 18 z M 21 26 C 18.243 26 16 28.243 16 31 L 16 41 C 16 43.757 18.243 46 21 46 L 23 46 C 25.757 46 28 43.757 28 41 C 28 40.447 27.553 40 27 40 C 26.447 40 26 40.447 26 41 C 26 42.654 24.654 44 23 44 L 21 44 C 19.346 44 18 42.654 18 41 L 18 31 C 18 29.346 19.346 28 21 28 L 23 28 C 24.654 28 26 29.346 26 31 C 26 31.553 26.447 32 27 32 C 27.553 32 28 31.553 28 31 C 28 28.243 25.757 26 23 26 L 21 26 z M 39.119141 28.009766 C 38.990438 27.993672 38.858312 28.000609 38.726562 28.037109 C 38.195563 28.189109 37.886109 28.743438 38.037109 29.273438 L 42.037109 43.273438 C 42.163109 43.713437 42.563047 44 42.998047 44 C 43.090047 44 43.182438 43.987891 43.273438 43.962891 C 43.804437 43.810891 44.113891 43.256563 43.962891 42.726562 L 39.962891 28.726562 C 39.848891 28.327562 39.50525 28.058047 39.119141 28.009766 z M 33.5 30 A 1.5 1.5 0 0 0 32 31.5 A 1.5 1.5 0 0 0 33.5 33 A 1.5 1.5 0 0 0 35 31.5 A 1.5 1.5 0 0 0 33.5 30 z M 33.5 40 A 1.5 1.5 0 0 0 32 41.5 A 1.5 1.5 0 0 0 33.5 43 A 1.5 1.5 0 0 0 35 41.5 A 1.5 1.5 0 0 0 33.5 40 z"/>
</svg>